<svg id="Layer_1" data-name="Layer 1" xmlns="http://www.w3.org/2000/svg" xmlns:xlink="http://www.w3.org/1999/xlink" viewBox="0 0 56.65 52.68"><defs><style>.cls-1{fill:none;}.cls-2{clip-path:url(#clip-path);}.cls-3{fill:#89172c;}</style><clipPath id="clip-path" transform="translate(0 0)"><rect class="cls-1" width="56.65" height="52.68"/></clipPath></defs><title>heart</title><g id="heart_solid" data-name="heart solid"><g class="cls-2"><g class="cls-2"><path class="cls-3" d="M56.65,17.16c-.17.89-.32,1.79-.51,2.67a21.5,21.5,0,0,1-6,10.73c-3.71,3.7-7.64,7.2-11.47,10.79a60,60,0,0,0-9.77,11.33H27.74C24.49,47.79,20.32,43.74,16,39.82c-3.27-3-6.58-5.88-9.64-9A21.25,21.25,0,0,1,0,14.83,15.36,15.36,0,0,1,27.67,6.18c.19.25.37.5.63.83l.6-.76C33,1.12,38.27-1,44.7.43A15.18,15.18,0,0,1,56.41,12.87c.05.3.16.59.24.89Z" transform="translate(0 0)"/></g></g></g></svg>